<?xml version="1.0" encoding="utf-8"?>
<!-- Generator: Adobe Illustrator 24.0.2, SVG Export Plug-In . SVG Version: 6.00 Build 0)  -->
<svg version="1.1" id="レイヤー_1" xmlns="http://www.w3.org/2000/svg" xmlns:xlink="http://www.w3.org/1999/xlink" x="0px"
	 y="0px" viewBox="0 0 565.5 63.3" style="enable-background:new 0 0 565.5 63.3;" xml:space="preserve">
<style type="text/css">
	.st0{fill:#990000;}
</style>
<g>
	<path class="st0" d="M133.8,61.7c-8.2,0-15-2.4-20.3-7.3c-5.4-4.8-8-10.9-8-18.3c0-7.4,2.7-13.5,8-18.3c5.3-4.8,12.1-7.2,20.4-7.2
		c8.3,0,15.1,2.4,20.4,7.3c5.3,4.9,8,11,8,18.3c0,7.3-2.7,13.4-8,18.3C148.8,59.3,142,61.7,133.8,61.7z M114.6,36.2
		c0,5.6,1.8,10.2,5.3,13.6c3.5,3.5,8.2,5.2,14,5.2c5.7,0,10.3-1.7,13.8-5.2c3.5-3.5,5.3-8,5.3-13.6c0-5.6-1.8-10.1-5.3-13.5
		c-3.5-3.4-8.2-5.1-14-5.1c-5.8,0-10.4,1.7-13.9,5.1C116.4,26.1,114.6,30.6,114.6,36.2z"/>
	<path class="st0" d="M223.4,46.6V16.5c0-1.1-0.1-1.8-0.5-2.2c-0.3-0.4-1-0.8-2.1-1.1v-1.4h12v1.4c-1,0.3-1.7,0.6-2.1,1.1
		c-0.3,0.4-0.5,1.1-0.5,2.2v39.6c0,1.1,0.2,1.8,0.5,2.3c0.3,0.4,1,0.8,2.1,1v1.4h-15v-1.4c0.8-0.2,1.3-0.5,1.7-0.8
		c0.3-0.3,0.5-0.8,0.5-1.3c0-0.3-0.1-0.7-0.2-1c-0.1-0.3-0.3-0.6-0.5-0.7l-31.7-32.7v33.3c0,1.1,0.2,1.8,0.5,2.3
		c0.3,0.4,1,0.8,2.1,1v1.4h-12v-1.4c1.1-0.3,1.8-0.6,2.1-1c0.3-0.4,0.5-1.2,0.5-2.3V16.5c0-1.1-0.2-1.8-0.5-2.2
		c-0.3-0.4-1-0.8-2.1-1.1v-1.4h17.9v1.4c-0.8,0.2-1.3,0.5-1.7,0.8c-0.3,0.3-0.5,0.8-0.5,1.3c0,0.3,0.1,0.6,0.2,0.9
		c0.1,0.3,0.3,0.6,0.5,0.8L223.4,46.6z"/>
	<path class="st0" d="M298.5,46.6V16.5c0-1.1-0.2-1.8-0.5-2.2c-0.3-0.4-1-0.8-2.1-1.1v-1.4h12v1.4c-1,0.3-1.7,0.6-2.1,1.1
		c-0.3,0.4-0.5,1.1-0.5,2.2v39.6c0,1.1,0.2,1.8,0.5,2.3c0.3,0.4,1,0.8,2.1,1v1.4h-15v-1.4c0.8-0.2,1.3-0.5,1.7-0.8
		c0.3-0.3,0.5-0.8,0.5-1.3c0-0.3-0.1-0.7-0.2-1c-0.1-0.3-0.3-0.6-0.5-0.7l-31.7-32.7v33.3c0,1.1,0.2,1.8,0.5,2.3
		c0.3,0.4,1,0.8,2.1,1v1.4h-12v-1.4c1.1-0.3,1.8-0.6,2.1-1c0.3-0.4,0.5-1.2,0.5-2.3V16.5c0-1.1-0.2-1.8-0.5-2.2
		c-0.3-0.4-1-0.8-2.1-1.1v-1.4h17.9v1.4c-0.8,0.2-1.3,0.5-1.7,0.8c-0.3,0.3-0.5,0.8-0.5,1.3c0,0.3,0.1,0.6,0.2,0.9
		c0.1,0.3,0.3,0.6,0.5,0.8L298.5,46.6z"/>
	<path class="st0" d="M328.6,60.8v-1.4c1.1-0.3,1.8-0.6,2.1-1c0.3-0.4,0.5-1.2,0.5-2.3V16.4c0-1-0.2-1.8-0.5-2.2
		c-0.3-0.4-1-0.7-2.1-1v-1.4h39.8c1,0,1.8-0.2,2.2-0.6c0.5-0.4,0.9-1.1,1.3-2.2h1.2v12.8h-1.2c-0.4-1.1-0.8-1.9-1.2-2.2
		c-0.4-0.4-1.2-0.5-2.2-0.5h-28.3v13.2h17.9c1,0,1.7-0.2,2.2-0.5c0.5-0.3,0.9-1,1.4-2h1.2v12.4h-1.2c-0.4-1.1-0.8-1.8-1.2-2.1
		c-0.4-0.3-1.1-0.5-2.2-0.5h-18.1v13.6h30.1c1.1,0,1.9-0.2,2.3-0.5c0.5-0.3,0.9-1,1.2-2.1h1.2v12.6H374c-0.4-1.1-0.8-1.7-1.2-2.1
		c-0.4-0.3-1.2-0.5-2.3-0.5H328.6z"/>
	<path class="st0" d="M436,26.6l-1-0.6c0.1-0.1,0.2-0.2,0.2-0.4c0.1-0.2,0.1-0.3,0.1-0.5c0-1.6-1.9-3.2-5.6-4.8
		c-3.8-1.6-7.6-2.4-11.6-2.4c-6.1,0-11,1.7-14.8,5.1c-3.7,3.4-5.6,7.8-5.6,13.3c0,5.4,1.9,9.8,5.6,13.1c3.7,3.3,8.6,5,14.7,5
		c4.1,0,8.1-1,11.9-3.1c3.8-2.1,5.7-3.7,5.7-4.9c0-0.1-0.1-0.4-0.2-0.7c-0.1-0.3-0.2-0.7-0.4-1l1.3-0.9l8,10l-0.9,0.7
		c-0.4-0.3-0.8-0.5-1.1-0.6c-0.3-0.1-0.6-0.2-0.9-0.2c-0.2,0-0.8,0.4-1.8,1.1c-6.9,4.7-14.2,7-22,7c-8.5,0-15.4-2.4-20.8-7.2
		c-5.4-4.8-8.1-10.9-8.1-18.3c0-7.4,2.7-13.5,8-18.3c5.3-4.8,12.1-7.3,20.3-7.3c6,0,12.5,1.5,19.4,4.6c1.7,0.7,2.8,1.1,3.2,1.1
		c0.2,0,0.4-0.1,0.6-0.3c0.3-0.2,0.6-0.5,1.1-1l1,0.6L436,26.6z"/>
	<path class="st0" d="M458.5,19.3c-1.1,0-1.8,0.2-2.3,0.5c-0.4,0.3-0.8,1-1,2L454,22V9.3l1.2,0.1c0.3,1,0.7,1.7,1.2,2
		c0.4,0.3,1.2,0.5,2.3,0.5H498c1,0,1.8-0.2,2.2-0.5c0.5-0.3,0.9-1,1.3-2.1h1.2V22l-1.2-0.1c-0.3-1-0.8-1.7-1.2-2
		c-0.4-0.3-1.2-0.5-2.2-0.5h-15.5v36.8c0,1.1,0.2,1.8,0.5,2.3c0.3,0.4,1,0.8,2.1,1v1.4H471v-1.4c1-0.3,1.7-0.6,2.1-1
		c0.3-0.4,0.5-1.2,0.5-2.3V19.3H458.5z"/>
	<path class="st0" d="M533.6,40.5L518.9,20c-1.3-1.8-2.5-3.2-3.7-4.3c-1.2-1.1-2.5-1.9-3.9-2.6v-1.4H528l-0.1,1.4
		c-0.7,0.2-1.1,0.3-1.3,0.5c-0.2,0.2-0.3,0.6-0.3,1.1c0,0.4,0.1,0.9,0.4,1.5c0.2,0.6,0.5,1.2,0.9,1.7l10.7,14.6L549.2,18
		c0.4-0.5,0.7-1,0.9-1.7c0.3-0.6,0.4-1.1,0.4-1.5c0-0.5-0.1-0.9-0.4-1.1c-0.3-0.2-0.7-0.4-1.4-0.5l-0.1-1.4h16.8v1.4
		c-1.4,0.6-2.6,1.4-3.8,2.4c-1.2,1-2.4,2.5-3.9,4.4l-15.4,20.5v15.6c0,1,0.2,1.8,0.5,2.2c0.4,0.4,1.1,0.8,2.2,1.1v1.4H531v-1.4
		c1-0.3,1.7-0.6,2.1-1c0.3-0.4,0.5-1.2,0.5-2.3V40.5z"/>
	<path class="st0" d="M87.3,40.4l-1,1c0.2,0.6,0.4,1,0.4,1.3c0.1,0.3,0.1,0.6,0.1,0.8c0,1.5-2.3,3.6-7,6.2
		c-4.6,2.6-9.5,3.9-14.5,3.9c-7.5,0-13.5-2.1-18.1-6.2c-0.5-0.4-1-0.9-1.4-1.4C59.7,44.5,72,39.7,72,31c0-7.4-9-12-20.4-14.1
		l-1.3,1.2c-1.8,1.7-3.2,3.7-4,5.9c11.6,1.5,17.8,5.2,17.8,7c0,2-7.9,6.5-22.6,7.4c-0.7-2.3-1.1-4.8-1.1-7.5
		c0-6.8,2.3-12.4,6.8-16.6c4.5-4.2,10.5-6.3,18-6.3c2.8,0,5.6,0.4,8.4,1.1c2.8,0.7,5.8,1.8,8.8,3.3c1.8,1.1,2.9,1.9,3.3,2.5
		c0.5,0.5,0.7,1.1,0.7,1.7c0,0.3,0,0.5-0.1,0.8c0,0.3-0.1,0.5-0.2,0.8l1.1,0.7l7.1-12.8l-1.2-0.7c-0.6,0.6-1,0.9-1.3,1.1
		c-0.3,0.2-0.6,0.3-0.9,0.3c-0.4,0-1.4-0.4-3.2-1.2C79.5,1.9,71.7,0,64.3,0c-9.8,0-17.9,2.9-24.2,8.8c-6.3,5.8-9.5,13.2-9.5,22
		c0,2.7,0.3,5.3,0.9,7.7C16.2,37.8,7.9,33.1,7.9,31c0-1.8,6.5-5.7,18.7-7.1c0.6-2.9,1.5-5.6,2.7-8.2C14.2,16.9,0,21.7,0,31
		c0,10.4,17.9,15.3,34.9,15.5c1.4,2.3,3.2,4.5,5.4,6.5c6.4,5.8,14.6,8.7,24.6,8.7c4.2,0,8.2-0.5,12-1.6c3.7-1.1,7.4-2.7,11-4.8
		c0.9-0.6,2-1.3,3.1-2.1c1.2-0.9,1.9-1.3,2.2-1.3c0.3,0,0.6,0.1,1,0.3c0.4,0.2,0.8,0.4,1.3,0.8l1.2-0.8L87.3,40.4z"/>
</g>
</svg>
